<svg width="28" height="28" fill="none" xmlns="http://www.w3.org/2000/svg"><g clip-path="url(#clip0_39_8)"><path d="M24.826 12.691c.398-.514.715-.927.948-1.239 1.681-2.235 2.41-3.663 2.187-4.286l-.088-.146c-.058-.087-.21-.168-.452-.24-.243-.073-.554-.085-.933-.037l-4.198.03a1.196 1.196 0 00-.482.05l-.072.037-.059.043a.643.643 0 00-.16.154.987.987 0 00-.146.255 23.79 23.79 0 01-1.56 3.28c-.36.603-.69 1.126-.99 1.567-.302.443-.555.768-.759.977a5.243 5.243 0 01-.554.503c-.165.127-.291.18-.378.16a7.193 7.193 0 01-.248-.058.96.96 0 01-.328-.357 1.602 1.602 0 01-.168-.569 6.155 6.155 0 01-.051-.59c-.005-.165-.003-.399.007-.7.01-.302.015-.505.015-.613 0-.368.007-.77.022-1.202.014-.432.027-.775.036-1.028.01-.252.015-.52.015-.802a3.35 3.35 0 00-.052-.663 2.324 2.324 0 00-.152-.467.782.782 0 00-.3-.35 1.685 1.685 0 00-.488-.196c-.515-.117-1.171-.18-1.968-.19-1.808-.019-2.97.098-3.484.35a1.968 1.968 0 00-.554.438c-.175.214-.2.33-.073.35.583.087.996.296 1.24.626l.087.175c.068.127.136.35.204.671.068.32.111.675.131 1.064.049.71.049 1.317 0 1.823-.049.505-.095.899-.138 1.18a2.38 2.38 0 01-.197.685 2.867 2.867 0 01-.175.321.256.256 0 01-.073.073 1.094 1.094 0 01-.394.073c-.136 0-.3-.069-.495-.205a3.446 3.446 0 01-.605-.56 7.458 7.458 0 01-.707-1 17.31 17.31 0 01-.817-1.515l-.233-.423a35.767 35.767 0 01-.598-1.188 22.746 22.746 0 01-.67-1.51.966.966 0 00-.35-.466l-.073-.043a.992.992 0 00-.233-.124 1.571 1.571 0 00-.336-.095l-3.994.029c-.408 0-.685.093-.83.277l-.06.088A.47.47 0 000 7.34c0 .107.03.238.088.393A48.105 48.105 0 001.99 11.7c.685 1.273 1.28 2.299 1.786 3.076.505.778 1.02 1.511 1.545 2.201.525.69.873 1.133 1.043 1.327.17.194.303.34.4.437l.365.35c.233.233.576.513 1.028.838.452.326.952.647 1.501.962a8.14 8.14 0 001.917.773c.73.2 1.439.28 2.129.24h1.676c.34-.028.598-.135.773-.32l.058-.073a.988.988 0 00.11-.27c.033-.12.05-.254.05-.4-.01-.418.023-.795.095-1.13.073-.335.156-.587.248-.758a1.864 1.864 0 01.562-.641c.048-.024.087-.041.116-.052.233-.077.508-.002.824.226.316.23.612.51.89.846.276.335.609.712.998 1.13.388.418.729.729 1.02.933l.292.175c.194.116.447.223.758.32.31.098.583.122.816.074l3.732-.059c.37 0 .656-.06.86-.182.205-.12.326-.255.365-.401.038-.146.041-.31.007-.495a1.81 1.81 0 00-.102-.386 1.988 1.988 0 00-.095-.183c-.486-.874-1.414-1.948-2.784-3.221l-.03-.03-.014-.014-.014-.014H24.9c-.622-.593-1.016-.992-1.18-1.196-.302-.388-.37-.782-.205-1.18.116-.303.553-.94 1.311-1.912z" fill="#E6CCBF"/></g><defs><clipPath id="clip0_39_8"><path fill="#fff" d="M0 0h28v28H0z"/></clipPath></defs></svg>