<svg width="26" height="26" fill="none" xmlns="http://www.w3.org/2000/svg"><g clip-path="url(#clip0_39_31)" fill="#E6CCBF"><path d="M19.239 14.94c-.051-.024-1.947-.958-2.283-1.079a1.313 1.313 0 00-.442-.097c-.256 0-.47.127-.638.378-.19.281-.763.951-.94 1.151-.023.027-.055.058-.073.058-.017 0-.31-.12-.4-.16-2.033-.882-3.576-3.006-3.788-3.365-.03-.051-.031-.074-.032-.074.008-.028.076-.096.111-.132a4.93 4.93 0 00.324-.367c.051-.061.102-.123.153-.181.157-.183.227-.325.308-.49l.042-.085a.88.88 0 00-.026-.831c-.044-.09-.845-2.022-.93-2.225-.204-.49-.475-.717-.85-.717-.035 0 0 0-.147.006-.178.007-1.147.135-1.576.405-.455.287-1.224 1.2-1.224 2.807 0 1.446.918 2.811 1.312 3.33l.054.078c1.509 2.204 3.39 3.836 5.296 4.598 1.836.733 2.705.818 3.2.818.207 0 .373-.016.52-.03l.093-.01c.634-.056 2.027-.778 2.344-1.659.25-.693.316-1.451.15-1.727-.114-.187-.31-.28-.558-.4z"/><path d="M13.231 0C6.189 0 .461 5.686.461 12.674c0 2.26.605 4.473 1.75 6.41l-2.193 6.47a.338.338 0 00.422.43l6.747-2.144a12.857 12.857 0 006.044 1.507c7.041 0 12.77-5.685 12.77-12.673S20.271 0 13.23 0zm0 22.707c-1.987 0-3.912-.573-5.566-1.66a.338.338 0 00-.288-.038l-3.38 1.074 1.092-3.219a.338.338 0 00-.047-.308 9.896 9.896 0 01-1.926-5.882C3.116 7.142 7.653 2.64 13.23 2.64c5.577 0 10.114 4.502 10.114 10.034 0 5.533-4.537 10.033-10.114 10.033z"/></g><defs><clipPath id="clip0_39_31"><path fill="#fff" d="M0 0h26v26H0z"/></clipPath></defs></svg>