<svg width="127" height="126" viewBox="0 0 127 126" fill="none" xmlns="http://www.w3.org/2000/svg">
<path d="M69.4531 47.9814H75.4062C75.9325 47.9814 76.4373 47.774 76.8094 47.4048C77.1816 47.0356 77.3906 46.5348 77.3906 46.0127C77.3906 45.4906 77.1816 44.9898 76.8094 44.6206C76.4373 44.2514 75.9325 44.0439 75.4062 44.0439H69.4531C68.9268 44.0439 68.4221 44.2514 68.05 44.6206C67.6778 44.9898 67.4688 45.4906 67.4688 46.0127C67.4688 46.5348 67.6778 47.0356 68.05 47.4048C68.4221 47.774 68.9268 47.9814 69.4531 47.9814Z" fill="#E6CCBF"/>
<path d="M71.9336 54.8721C73.3035 54.8721 74.4141 53.7703 74.4141 52.4111C74.4141 51.052 73.3035 49.9502 71.9336 49.9502C70.5637 49.9502 69.4531 51.052 69.4531 52.4111C69.4531 53.7703 70.5637 54.8721 71.9336 54.8721Z" fill="#E6CCBF"/>
<path d="M59.5312 46.0127C59.5312 45.4906 59.3222 44.9898 58.95 44.6206C58.5779 44.2514 58.0732 44.0439 57.5469 44.0439H51.5938C51.0675 44.0439 50.5627 44.2514 50.1906 44.6206C49.8184 44.9898 49.6094 45.4906 49.6094 46.0127C49.6094 46.5348 49.8184 47.0356 50.1906 47.4048C50.5627 47.774 51.0675 47.9814 51.5938 47.9814H57.5469C58.0732 47.9814 58.5779 47.774 58.95 47.4048C59.3222 47.0356 59.5312 46.5348 59.5312 46.0127Z" fill="#E6CCBF"/>
<path d="M55.0664 54.8721C56.4363 54.8721 57.5469 53.7703 57.5469 52.4111C57.5469 51.052 56.4363 49.9502 55.0664 49.9502C53.6965 49.9502 52.5859 51.052 52.5859 52.4111C52.5859 53.7703 53.6965 54.8721 55.0664 54.8721Z" fill="#E6CCBF"/>
<path d="M67.4687 67.6689H59.5312C59.005 67.6689 58.5002 67.8764 58.1281 68.2456C57.7559 68.6148 57.5469 69.1156 57.5469 69.6377C57.5469 70.1598 57.7559 70.6606 58.1281 71.0298C58.5002 71.399 59.005 71.6065 59.5312 71.6065H67.4687C67.995 71.6065 68.4998 71.399 68.8719 71.0298C69.2441 70.6606 69.4531 70.1598 69.4531 69.6377C69.4531 69.1156 69.2441 68.6148 68.8719 68.2456C68.4998 67.8764 67.995 67.6689 67.4687 67.6689Z" fill="#E6CCBF"/>
<path d="M16.009 103.792C13.5705 105.002 11.4638 106.78 9.86947 108.975C8.27515 111.169 7.24066 113.714 6.85461 116.392L5.97306 122.516C5.93286 122.795 5.95362 123.079 6.03391 123.35C6.11421 123.621 6.25217 123.871 6.43846 124.084C6.62474 124.297 6.855 124.468 7.11365 124.585C7.37229 124.702 7.65328 124.763 7.93759 124.763H119.063C119.347 124.763 119.628 124.702 119.887 124.585C120.145 124.468 120.375 124.297 120.562 124.084C120.748 123.871 120.886 123.621 120.966 123.35C121.047 123.079 121.067 122.795 121.027 122.516L120.146 116.393C119.76 113.715 118.725 111.17 117.131 108.976C115.536 106.781 113.43 105.003 110.991 103.793L75.4063 86.1398V81.401C78.2031 79.2715 80.3676 76.4314 81.6708 73.1815C83.1537 69.509 84.1971 65.6765 84.7795 61.7627H86.0863C87.4205 61.7672 88.7294 61.4007 89.8644 60.7048C90.9993 60.0088 91.9151 59.0112 92.5077 57.8252C93.0049 56.8357 93.2644 55.7454 93.2657 54.6398V51.1669C93.2665 49.3281 92.5478 47.5608 91.261 46.2374L92.2993 42.1439C93.2653 38.3268 93.2944 34.3355 92.3842 30.5049C91.4741 26.6744 89.6512 23.1162 87.0685 20.1291C84.4042 16.623 80.7718 13.9591 76.6119 12.4603C72.452 10.9614 67.9432 10.6921 63.6321 11.6848C62.3174 11.9893 61.0057 12.2917 59.7551 12.5799C56.968 13.2177 54.3436 14.4195 52.0463 16.1102C49.7491 17.8009 47.8285 19.9439 46.4047 22.4052C44.5283 22.5069 42.697 23.0139 41.0386 23.8907C39.3802 24.7676 37.9349 25.9932 36.8036 27.4818C35.788 28.8177 35.0497 30.34 34.6311 31.9609C34.2126 33.5817 34.1222 35.2688 34.3652 36.9245L35.7104 46.2667C34.4412 47.5873 33.7335 49.3422 33.7345 51.1669V54.6398C33.7358 55.7454 33.9953 56.8357 34.4925 57.8252C35.0851 59.0112 36.0008 60.0088 37.1358 60.7048C38.2708 61.4007 39.5797 61.7672 40.9139 61.7627H42.2206C42.8031 65.6765 43.8464 69.509 45.3294 73.1815C46.6326 76.4314 48.7971 79.2715 51.5938 81.401V86.1398L16.009 103.792ZM21.8282 120.825V114.919C21.8282 114.397 21.6191 113.896 21.247 113.527C20.8749 113.158 20.3701 112.95 19.8438 112.95C19.3175 112.95 18.8128 113.158 18.4407 113.527C18.0685 113.896 17.8595 114.397 17.8595 114.919V120.825H10.2256L10.7837 116.95C11.0791 114.902 11.8703 112.956 13.0897 111.278C14.309 109.6 15.9201 108.24 17.785 107.315L45.2503 93.6902L36.2214 103.768C35.9897 104.027 35.8307 104.341 35.7605 104.68C35.6904 105.019 35.7115 105.371 35.8218 105.699L40.903 120.825H21.8282ZM49.6095 101.138V120.825H45.0866L39.9485 105.532L49.6095 94.7496V101.138ZM109.215 107.315C111.08 108.24 112.691 109.6 113.91 111.278C115.129 112.957 115.92 114.903 116.216 116.951L116.775 120.825H109.141V114.919C109.141 114.397 108.932 113.896 108.56 113.527C108.187 113.158 107.683 112.95 107.156 112.95C106.63 112.95 106.125 113.158 105.753 113.527C105.381 113.896 105.172 114.397 105.172 114.919V120.825H86.0972L91.1796 105.698C91.2899 105.37 91.311 105.018 91.2409 104.679C91.1707 104.34 91.0118 104.026 90.7801 103.767L81.7511 93.6892L109.215 107.315ZM77.3907 101.138V94.7496L87.0517 105.532L81.9136 120.825H77.3907V101.138ZM55.771 120.825H53.5782V102.354L56.1043 101.101L57.511 105.288L55.771 120.825ZM59.8389 94.8466L53.5782 97.9523V93.5826L54.5607 90.6583L59.8389 94.8466ZM55.5626 86.4102V83.7352C58.0647 84.8251 60.7675 85.3878 63.5001 85.3878C66.2327 85.3878 68.9355 84.8251 71.4376 83.7352V86.4102L63.5001 92.7102L55.5626 86.4102ZM59.764 120.825L61.3074 107.044H65.6928L67.2362 120.825H59.764ZM66.0396 103.106H60.9616L59.6903 99.3225L63.5001 97.4325L67.3098 99.3225L66.0396 103.106ZM73.422 120.825H71.2292L69.4892 105.288L70.8959 101.101L73.422 102.354V120.825ZM73.422 97.9523L67.1615 94.8466L72.4395 90.6578L73.422 93.5826V97.9523ZM89.297 54.6398C89.2963 55.1342 89.1803 55.6218 88.9581 56.0644C88.693 56.5948 88.2835 57.0408 87.7759 57.3521C87.2683 57.6633 86.683 57.8272 86.0863 57.8252H85.2074C85.2868 56.6687 85.3271 55.5069 85.3282 54.3398V47.9815H86.0863C86.9375 47.9824 87.7536 48.3184 88.3555 48.9155C88.9574 49.5127 89.296 50.3224 89.297 51.1669V54.6398ZM40.9139 57.8252C40.3172 57.8272 39.7319 57.6633 39.2243 57.3521C38.7167 57.0408 38.3072 56.5948 38.042 56.0644C37.8199 55.6218 37.7039 55.1342 37.7032 54.6398V51.1669C37.7042 50.3224 38.0428 49.5127 38.6447 48.9155C39.2466 48.3184 40.0627 47.9824 40.9139 47.9815H41.672V54.3398C41.672 55.5068 41.7122 56.6686 41.7928 57.8252H40.9139ZM41.9466 39.1068C41.7669 39.4098 41.6721 39.7549 41.672 40.1065V44.044H40.9139C40.4125 44.0441 39.9124 44.0963 39.4219 44.1997L38.2943 36.3681C38.1263 35.2243 38.1886 34.0588 38.4777 32.939C38.7668 31.8193 39.2769 30.7676 39.9785 29.8448C40.8069 28.7547 41.8784 27.8696 43.1092 27.259C44.34 26.6485 45.6966 26.329 47.0727 26.3257H47.6003C47.9688 26.3257 48.3301 26.2239 48.6436 26.0317C48.9571 25.8395 49.2105 25.5645 49.3753 25.2375C50.4826 23.0325 52.068 21.098 54.0177 19.5727C55.9675 18.0474 58.2334 16.969 60.6528 16.415C61.9044 16.1268 63.2161 15.8244 64.5327 15.5197C68.1051 14.6977 71.8413 14.9242 75.2861 16.1717C78.731 17.4192 81.7358 19.6338 83.9345 22.5457C83.9617 22.5819 83.9903 22.6168 84.02 22.651C86.2022 25.1612 87.7439 28.1553 88.515 31.3806C89.2861 34.606 89.264 37.968 88.4506 41.1831L87.6797 44.2231C87.157 44.1044 86.6225 44.0443 86.0863 44.044H85.3282V40.1065C85.3282 39.5843 85.1192 39.0836 84.747 38.7143C84.3749 38.3451 83.8701 38.1377 83.3438 38.1377H73.6916C69.4729 38.1272 65.298 37.2882 61.4078 35.669C57.5175 34.0498 53.9889 31.6825 51.0253 28.7037C50.812 28.4882 50.5517 28.3243 50.2643 28.2247C49.977 28.125 49.6704 28.0922 49.3682 28.129C49.0661 28.1657 48.7765 28.2708 48.5219 28.4363C48.2673 28.6019 48.0545 28.8233 47.8999 29.0834L41.9466 39.1068ZM49.0142 71.7202C46.7807 66.1938 45.6356 60.2939 45.6407 54.3398V40.6434L50.056 33.2114C56.5954 38.9037 64.9921 42.0526 73.6916 42.0752H81.3595V54.3398C81.3646 60.2939 80.2195 66.1938 77.986 71.7202C76.8279 74.5924 74.8288 77.0544 72.2468 78.7887C69.6648 80.5229 66.6182 81.4499 63.5001 81.4499C60.382 81.4499 57.3354 80.5229 54.7534 78.7887C52.1714 77.0544 50.1723 74.5924 49.0142 71.7202Z" fill="#E6CCBF"/>
<path d="M59.5312 61.7627C59.5312 62.2849 59.7403 62.7856 60.1125 63.1548C60.4846 63.524 60.9893 63.7315 61.5156 63.7315H65.4844C66.0107 63.7315 66.5154 63.524 66.8875 63.1548C67.2597 62.7856 67.4687 62.2849 67.4687 61.7627C67.4687 61.2406 67.2597 60.7398 66.8875 60.3706C66.5154 60.0014 66.0107 59.794 65.4844 59.794H63.5V55.8564C63.5 55.3343 63.2909 54.8335 62.9188 54.4643C62.5466 54.0951 62.0419 53.8877 61.5156 53.8877C60.9893 53.8877 60.4846 54.0951 60.1125 54.4643C59.7403 54.8335 59.5312 55.3343 59.5312 55.8564V61.7627Z" fill="#E6CCBF"/>
</svg>
