<svg width="104" height="104" viewBox="0 0 104 104" fill="none" xmlns="http://www.w3.org/2000/svg">
<g clip-path="url(#clip0_253_4)">
<path d="M72.1939 104.009C74.5434 104.002 76.5995 102.429 77.219 100.162L82.0108 82.272L100.158 77.4206C102.923 76.6686 104.561 73.8241 103.824 71.0558L94.4145 35.9865L95.1593 33.2142C95.8328 30.6608 94.4843 28.0082 92.0245 27.0468L87.7879 11.2315C87.0296 8.46872 84.1922 6.82912 81.4199 7.55096L50.4714 15.8529L24.5203 8.89547C23.4565 8.60357 22.327 8.66465 21.3014 9.06919L14.8183 2.59726C12.633 0.392098 9.4355 -0.47569 6.43552 0.323088C3.43555 1.12187 1.09236 3.46426 0.292787 6.46424C-0.506784 9.46422 0.359418 12.6625 2.56379 14.8478L14.3805 26.6645L0.222983 79.5155C-0.517889 82.2871 1.12091 85.1355 3.88927 85.8891L70.8446 103.829C71.2841 103.948 71.7378 104.01 72.1939 104.009ZM100.471 71.9513C100.716 72.8707 100.174 73.8162 99.2571 74.0692L83.0484 78.401L92.6155 42.6861L100.471 71.9513ZM82.3067 10.9023C82.7533 10.7802 83.23 10.842 83.6306 11.0737C84.0312 11.3045 84.3223 11.6868 84.4397 12.1342L88.1361 25.9419L57.1654 17.6447L82.3067 10.9023ZM52.5021 52.5419L43.7536 49.626L49.5862 43.7879L52.5021 52.5356V52.5419ZM45.4495 43.0327L30.7463 28.3279C30.0697 27.6513 28.9718 27.6513 28.2952 28.3287C27.6186 29.0053 27.6194 30.1031 28.2968 30.7798L43.0008 45.4806L40.5513 47.9333L16.0439 23.4258L18.4941 20.9755L23.3939 25.8776C23.8325 26.3155 24.4703 26.4868 25.0692 26.3258C25.6673 26.1656 26.1345 25.6984 26.2947 25.1003C26.4549 24.5022 26.2844 23.8636 25.8465 23.4258L20.946 18.5252L23.3963 16.0734L47.8998 40.5809L45.4495 43.0327ZM11.1417 18.5252L18.4941 11.1728L20.9444 13.6231L13.5936 20.9755L11.1417 18.5252ZM3.49266 8.72255C3.49266 6.61971 4.75944 4.72311 6.70205 3.91878C8.64545 3.11445 10.8815 3.55945 12.3681 5.04674L16.0439 8.72255L8.69145 16.075L5.01406 12.3976C4.03681 11.4251 3.48869 10.102 3.49266 8.72255ZM3.57277 80.4254L17.2131 29.4971L39.3242 51.6083C39.5051 51.7852 39.7224 51.9192 39.962 52.0017C39.9755 52.0017 39.9858 52.0208 40.0016 52.0255L51.4161 55.8377C51.7723 55.9551 52.1459 56.0131 52.5211 56.0115C53.1739 56.0091 53.8125 55.8211 54.3614 55.4689L74.2888 60.82C74.4355 60.8605 74.5871 60.8811 74.7393 60.8803C75.6095 60.8803 76.344 60.2354 76.4567 59.3732C76.5701 58.5109 76.0267 57.6987 75.1867 57.4742L55.9526 52.3103C55.9352 52.016 55.882 51.7249 55.7932 51.4433L51.9809 40.028C51.9809 40.0121 51.9619 40.0018 51.9547 39.9859C51.8722 39.7488 51.7382 39.5322 51.5629 39.3521L24.7804 12.5586L90.5777 30.1833C91.0227 30.3022 91.4018 30.5926 91.6319 30.9916C91.8619 31.3898 91.9238 31.8633 91.8048 32.3083L73.8731 99.2557C73.755 99.7007 73.4638 100.081 73.0648 100.311C72.6659 100.541 72.1915 100.603 71.7473 100.483L4.7991 82.5496C4.35489 82.4306 3.97573 82.1403 3.7449 81.7421C3.51487 81.3431 3.453 80.8696 3.57277 80.4254Z" fill="#E6CCBF"/>
<path d="M80.1252 40.7877C80.9946 40.7869 81.7291 40.1421 81.8426 39.2798C81.9552 38.4184 81.4118 37.6053 80.5726 37.3808L55.9263 30.7772C55.3219 30.5972 54.6683 30.7598 54.2185 31.2016C53.7687 31.6426 53.5942 32.2939 53.7624 32.9007C53.9306 33.5083 54.416 33.9763 55.0284 34.1231L79.6763 40.7283C79.823 40.7679 79.9737 40.7877 80.1252 40.7877Z" fill="#E6CCBF"/>
<path d="M77.4322 50.8293C78.3016 50.8285 79.0361 50.1844 79.1496 49.3222C79.263 48.4599 78.7196 47.6477 77.8796 47.4224L61.1227 42.9399C60.5207 42.7686 59.8734 42.9343 59.4284 43.3754C58.9834 43.8156 58.8113 44.4621 58.977 45.0657C59.1428 45.6694 59.6211 46.1366 60.2287 46.2873L76.9856 50.7706C77.1308 50.8095 77.2815 50.8293 77.4322 50.8293Z" fill="#E6CCBF"/>
<path d="M23.9624 54.5026L18.9373 53.1565C18.3345 52.9804 17.6832 53.1438 17.2359 53.5849C16.7885 54.0251 16.614 54.6732 16.7806 55.2792C16.9471 55.8844 17.4278 56.3524 18.0378 56.5023L23.0629 57.8508C23.2104 57.8897 23.3611 57.9095 23.5134 57.9095C24.3836 57.9103 25.1189 57.2654 25.2324 56.4032C25.3458 55.541 24.8024 54.7279 23.9624 54.5026Z" fill="#E6CCBF"/>
<path d="M73.7255 69.6286C73.973 68.7045 73.4241 67.7558 72.5008 67.5075L34.0024 57.194C33.1092 57.0195 32.2335 57.5668 31.9971 58.4457C31.7616 59.3246 32.2462 60.2368 33.1069 60.5327L71.6029 70.847C71.7496 70.8874 71.9003 70.9073 72.0518 70.9073C72.8348 70.9081 73.5209 70.3837 73.7255 69.6286Z" fill="#E6CCBF"/>
<path d="M21.2694 64.5446L16.2443 63.1977C15.3218 62.9558 14.3771 63.5047 14.1304 64.4256C13.8837 65.3474 14.4286 66.2953 15.3488 66.5459L20.3739 67.8904C20.5198 67.9309 20.6705 67.9515 20.8228 67.9507C21.6922 67.9515 22.4275 67.3066 22.541 66.4444C22.6552 65.5822 22.1118 64.7691 21.271 64.5446H21.2694Z" fill="#E6CCBF"/>
<path d="M69.8093 77.5511L31.3133 67.2353C30.7088 67.056 30.0552 67.2186 29.6055 67.6596C29.1557 68.1015 28.9812 68.7519 29.1494 69.3595C29.3175 69.9663 29.803 70.4343 30.4153 70.5819L68.9121 80.897C69.0589 80.9374 69.2104 80.958 69.3627 80.958C70.2321 80.9572 70.9666 80.3123 71.08 79.4501C71.1927 78.5879 70.6493 77.7756 69.8093 77.5511Z" fill="#E6CCBF"/>
</g>
<defs>
<clipPath id="clip0_253_4">
<rect width="104" height="104" fill="white"/>
</clipPath>
</defs>
</svg>
