<svg width="105" height="105" viewBox="0 0 105 105" fill="none" xmlns="http://www.w3.org/2000/svg">
<g clip-path="url(#clip0_43_100)">
<path d="M63.679 13.0634L24.0398 20.0529C23.9386 20.0703 23.8362 20.0791 23.7335 20.0791C22.826 20.0786 22.0694 19.3844 21.991 18.4802C21.9127 17.576 22.5386 16.762 23.4325 16.6054L63.07 9.62464C64.022 9.45647 64.9301 10.0919 65.0983 11.0439C65.2664 11.9959 64.631 12.904 63.679 13.0721V13.0634Z" fill="#E6CCBF"/>
<path d="M57.6976 19.4492C58.6361 19.3086 59.5157 19.9416 59.6804 20.8762C59.8452 21.8108 59.2349 22.7064 58.3048 22.895L32.4538 27.4537C32.3528 27.4725 32.2503 27.4819 32.1476 27.4817C31.2397 27.4821 30.4822 26.7882 30.4034 25.8837C30.3246 24.9792 30.9505 24.1647 31.8448 24.008L57.6976 19.4492Z" fill="#E6CCBF"/>
<path d="M68.642 51.2748L32.4485 57.6571C32.2481 57.6927 32.0449 57.7103 31.8413 57.7096C30.1442 57.7083 28.6926 56.4898 28.3973 54.8186L25.3575 37.5828C25.0228 35.6799 26.2934 33.8658 28.196 33.5298L64.386 27.1546C66.2889 26.8199 68.1031 28.0904 68.439 29.9931L71.4788 47.2253C71.8114 49.1264 70.5424 50.938 68.642 51.2748ZM64.995 30.6021L28.8015 36.9826L31.8378 54.2166L68.033 47.8361L64.995 30.6021Z" fill="#E6CCBF"/>
<path d="M94.9183 93.5427C93.5188 101.086 86.3085 106.098 78.75 104.781L23.5935 95.0512C21.9393 94.7567 20.5278 93.684 19.8013 92.1689C14.7236 90.7005 10.9164 86.4817 9.97504 81.2804C9.97504 81.2454 9.94353 81.2157 9.93829 81.1807L0.211784 26.0294C-0.447311 22.3003 0.432411 18.4632 2.65025 15.3936C4.86808 12.3241 8.23481 10.2839 11.9823 9.73866L66.7205 0.0874141C68.0836 -0.16117 69.4893 0.150507 70.6195 0.951914C71.7769 1.74009 72.564 2.96497 72.8 4.34516L75.3673 18.8999L92.911 21.9887C99.9568 23.1124 105.076 29.2872 104.876 36.4192C104.852 37.0431 104.784 37.6647 104.675 38.2794L94.9638 93.4202C94.955 93.4657 94.9288 93.5007 94.9183 93.5427ZM79.3433 101.334C82.319 101.851 85.3737 101.066 87.731 99.1777C90.1069 97.2911 91.5416 94.4619 91.6598 91.4304C91.7738 86.7373 88.7887 82.5276 84.322 81.0827C83.5439 81.9891 82.4772 82.5997 81.3015 82.8117L78.2075 83.3577L82.369 84.0962C84.4371 84.4559 86.2347 85.7248 87.2661 87.5531C88.2976 89.3813 88.4541 91.576 87.6925 93.5322C86.6065 96.2434 83.9628 98.0056 81.0425 97.9649C80.6049 97.965 80.1681 97.9269 79.737 97.8512L37.891 90.4749L27.825 92.2442L79.3433 101.334ZM47.9588 88.6917L80.3338 94.4037C82.0223 94.7384 83.7175 93.8592 84.4165 92.2862C84.8064 91.3058 84.7332 90.2019 84.2173 89.2816C83.7015 88.3613 82.798 87.7227 81.7583 87.5437L68.1538 85.1304L47.9588 88.6917ZM17.1588 86.9417C19.5166 88.8315 22.5743 89.6139 25.55 89.0889L80.6995 79.3659C81.598 79.214 82.2295 78.3981 82.1514 77.4903C82.0732 76.5824 81.3115 75.8865 80.4003 75.8904C80.2976 75.8911 80.1951 75.9004 80.094 75.9184L25.144 85.6064C21.8089 86.249 18.4842 84.4467 17.2025 81.3014C16.4358 79.3462 16.5875 77.15 17.6157 75.3188C18.6439 73.4875 20.44 72.2147 22.5085 71.8514L77.6615 62.1249C78.6121 61.9561 79.2464 61.0493 79.079 60.0984C78.911 59.1479 78.0051 58.5129 77.0543 58.6792L22.3265 68.3287C17.0027 69.1537 13.1121 73.7925 13.2265 79.1787C13.3438 82.2162 14.7828 85.0508 17.1658 86.9382L17.1588 86.9417ZM23.1088 75.3059C22.074 75.4914 21.1774 76.1323 20.6668 77.0512C20.1563 77.9702 20.0859 79.0701 20.475 80.0467C21.1718 81.6126 22.8584 82.4889 24.5403 82.1589L77.763 72.7754L76.538 65.8822L23.1088 75.3059ZM69.3578 4.95416C69.2758 4.48974 69.0061 4.07958 68.6123 3.82016C68.2424 3.55218 67.7782 3.44896 67.3295 3.53491L15.6223 12.6524L17.2095 21.6404C17.2904 22.0976 17.1863 22.5682 16.9201 22.9486C16.6539 23.329 16.2475 23.588 15.7903 23.6687C15.6897 23.686 15.5878 23.6948 15.4858 23.6949C14.6373 23.6943 13.9114 23.085 13.7638 22.2494L12.1888 13.2964C7.06289 14.281 3.39734 18.8232 3.51753 24.0414C3.53934 24.5043 3.5896 24.9654 3.66804 25.4222L11.7968 71.5592C13.9284 68.1537 17.3664 65.7743 21.3045 64.9792L15.6205 32.7127C15.4922 32.0885 15.7133 31.4439 16.1977 31.0299C16.6822 30.6159 17.3534 30.4979 17.9499 30.722C18.5465 30.946 18.9741 31.4766 19.0663 32.1072L24.7468 64.3527L76.447 55.2369C77.036 55.1397 77.6372 55.1433 78.225 55.2474L69.3578 4.95416ZM101.383 36.2792C101.515 30.8959 97.6309 26.251 92.309 25.4292L76.0183 22.5539L82.5265 59.4999C82.9022 61.6842 81.8658 63.8691 79.9365 64.9599L81.263 72.4849C83.4601 72.8308 85.1916 74.5398 85.5663 76.7322C85.6277 77.0874 85.653 77.4481 85.6415 77.8084C88.7335 78.9071 91.3625 81.0203 93.1 83.8039L101.227 37.6897C101.309 37.2239 101.359 36.7533 101.379 36.2809L101.383 36.2792Z" fill="#E6CCBF"/>
</g>
<defs>
<clipPath id="clip0_43_100">
<rect width="105" height="105" fill="white" transform="matrix(-1 0 0 1 105 0)"/>
</clipPath>
</defs>
</svg>
