<svg width="127" height="126" fill="none" xmlns="http://www.w3.org/2000/svg"><path d="M69.453 47.981h5.953c.526 0 1.031-.207 1.403-.576a1.96 1.96 0 000-2.784 1.992 1.992 0 00-1.403-.577h-5.953c-.526 0-1.03.207-1.403.577a1.96 1.96 0 000 2.784c.372.369.877.576 1.403.576zm2.481 6.891a2.47 2.47 0 002.48-2.46 2.47 2.47 0 00-2.48-2.462 2.47 2.47 0 00-2.48 2.461 2.47 2.47 0 002.48 2.461zm-12.403-8.859a1.96 1.96 0 00-.581-1.392 1.992 1.992 0 00-1.403-.577h-5.953a1.99 1.99 0 00-1.403.577 1.96 1.96 0 000 2.784c.372.369.877.576 1.403.576h5.953c.526 0 1.03-.207 1.403-.576.372-.37.581-.87.581-1.392zm-4.465 8.859a2.47 2.47 0 002.48-2.46 2.47 2.47 0 00-2.48-2.462 2.47 2.47 0 00-2.48 2.461 2.47 2.47 0 002.48 2.461zm12.403 12.797H59.53c-.526 0-1.03.207-1.403.577a1.96 1.96 0 000 2.784c.372.369.877.576 1.403.576h7.938c.526 0 1.03-.207 1.403-.576a1.96 1.96 0 000-2.784 1.992 1.992 0 00-1.403-.577z" fill="#E6CCBF"/><path d="M16.009 103.792a16.832 16.832 0 00-6.14 5.183 16.66 16.66 0 00-3.014 7.417l-.882 6.124a1.953 1.953 0 00.465 1.568 1.983 1.983 0 001.5.679h111.125a2.002 2.002 0 001.499-.679 1.96 1.96 0 00.465-1.568l-.881-6.123a16.664 16.664 0 00-3.015-7.417 16.835 16.835 0 00-6.14-5.183L75.406 86.14V81.4a19.418 19.418 0 006.265-8.22 50.251 50.251 0 003.108-11.418h1.307a7.183 7.183 0 003.778-1.058 7.106 7.106 0 002.644-2.88c.497-.99.756-2.08.758-3.185v-3.473a7.066 7.066 0 00-2.005-4.93l1.038-4.093a24.42 24.42 0 00.085-11.64 24.537 24.537 0 00-5.316-10.375 22.861 22.861 0 00-10.456-7.669 23.046 23.046 0 00-12.98-.775l-3.877.895a20.853 20.853 0 00-7.709 3.53 20.668 20.668 0 00-5.641 6.295 12.985 12.985 0 00-5.366 1.486 12.88 12.88 0 00-4.235 3.59 12.611 12.611 0 00-2.173 4.48 12.557 12.557 0 00-.266 4.964l1.345 9.342a7.066 7.066 0 00-1.976 4.9v3.473a7.112 7.112 0 00.758 3.185 7.105 7.105 0 002.644 2.88 7.183 7.183 0 003.778 1.058h1.307a50.251 50.251 0 003.108 11.419 19.419 19.419 0 006.265 8.219v4.739l-35.585 17.652zm5.82 17.033v-5.906a1.96 1.96 0 00-.582-1.392 1.994 1.994 0 00-2.806 0 1.96 1.96 0 00-.581 1.392v5.906h-7.634l.558-3.875a12.742 12.742 0 012.306-5.672 12.873 12.873 0 014.695-3.963L45.25 93.69l-9.029 10.078a1.965 1.965 0 00-.4 1.931l5.082 15.126H21.828zm27.78-19.687v19.687h-4.522l-5.139-15.293L49.61 94.75v6.388zm59.606 6.177a12.869 12.869 0 014.695 3.963 12.762 12.762 0 012.306 5.673l.559 3.874h-7.634v-5.906a1.96 1.96 0 00-.581-1.392 1.996 1.996 0 00-2.807 0 1.96 1.96 0 00-.581 1.392v5.906H86.097l5.083-15.127a1.956 1.956 0 00-.4-1.931l-9.029-10.078 27.464 13.626zm-31.824-6.177V94.75l9.66 10.782-5.137 15.293H77.39v-19.687zm-21.62 19.687h-2.193v-18.471l2.526-1.253 1.407 4.187-1.74 15.537zm4.068-25.978l-6.26 3.105v-4.37l.982-2.924 5.278 4.189zm-4.276-8.437v-2.675a19.878 19.878 0 0015.875 0v2.675l-7.938 6.3-7.937-6.3zm4.201 34.415l1.543-13.781h4.386l1.543 13.781h-7.472zm6.276-17.719h-5.078l-1.272-3.783 3.81-1.89 3.81 1.89-1.27 3.783zm7.382 17.719h-2.193l-1.74-15.537 1.407-4.187 2.526 1.253v18.471zm0-22.873l-6.26-3.105 5.277-4.19.983 2.926v4.37zM89.297 54.64a3.185 3.185 0 01-1.521 2.712 3.213 3.213 0 01-1.69.473h-.879c.08-1.156.12-2.318.121-3.485v-6.36h.758a3.229 3.229 0 012.27.934c.601.598.94 1.407.941 2.252v3.473zm-48.383 3.185a3.213 3.213 0 01-1.69-.473 3.179 3.179 0 01-1.52-2.712v-3.473c0-.845.339-1.654.94-2.252a3.227 3.227 0 012.27-.934h.758v6.359c0 1.167.04 2.329.12 3.485h-.878zm1.033-18.718a1.96 1.96 0 00-.275 1v3.937h-.758a7.24 7.24 0 00-1.492.156l-1.128-7.832a8.673 8.673 0 011.684-6.523 8.897 8.897 0 013.131-2.586 8.97 8.97 0 013.964-.933h.527a2 2 0 001.044-.294c.313-.192.567-.468.731-.794a16.723 16.723 0 014.643-5.665 16.885 16.885 0 016.635-3.158c1.251-.288 2.563-.59 3.88-.895a19.047 19.047 0 0110.753.652 18.894 18.894 0 018.648 6.374c.028.036.056.07.086.105a20.612 20.612 0 014.495 8.73 20.512 20.512 0 01-.064 9.802l-.771 3.04a7.214 7.214 0 00-1.594-.179h-.758v-3.938a1.96 1.96 0 00-.581-1.392 1.992 1.992 0 00-1.403-.576h-9.652a32.179 32.179 0 01-12.284-2.469 31.976 31.976 0 01-10.383-6.965 1.985 1.985 0 00-1.657-.575 1.994 1.994 0 00-1.468.954l-5.953 10.024zm7.067 32.613a46.273 46.273 0 01-3.373-17.38V40.643l4.415-7.432a36.146 36.146 0 0023.636 8.864h7.668V54.34a46.273 46.273 0 01-3.374 17.38 15.503 15.503 0 01-5.74 7.069 15.69 15.69 0 01-8.746 2.66 15.69 15.69 0 01-8.747-2.66 15.503 15.503 0 01-5.739-7.069z" fill="#E6CCBF"/><path d="M59.531 61.763c0 .522.21 1.023.581 1.392.373.369.877.576 1.404.576h3.968c.527 0 1.031-.207 1.404-.576a1.96 1.96 0 000-2.784 1.992 1.992 0 00-1.404-.577H63.5v-3.938c0-.522-.21-1.023-.581-1.392a1.993 1.993 0 00-2.806 0 1.96 1.96 0 00-.582 1.392v5.907z" fill="#E6CCBF"/></svg>