<svg width="100" height="100" viewBox="0 0 100 100" fill="none" xmlns="http://www.w3.org/2000/svg">
<path d="M84.2694 37.6445C84.2636 37.6367 84.2577 37.6309 84.2519 37.6231C84.246 37.6152 84.2382 37.6113 84.2304 37.6055C75.1485 28.5334 62.8367 23.4375 49.9999 23.4375C37.1631 23.4375 24.8513 28.5334 15.7695 37.6055C15.7617 37.6113 15.7558 37.6172 15.748 37.6231C15.7402 37.6289 15.7363 37.6367 15.7304 37.6445C11.2241 42.131 7.65179 47.4661 5.21995 53.3416C2.7881 59.217 1.54498 65.5162 1.56244 71.875C1.56244 72.2894 1.72706 72.6868 2.02008 72.9799C2.31311 73.2729 2.71054 73.4375 3.12494 73.4375H15.6249C16.0393 73.4375 16.4368 73.2729 16.7298 72.9799C17.0228 72.6868 17.1874 72.2894 17.1874 71.875C17.1874 53.7813 31.9062 39.0625 49.9999 39.0625C68.0937 39.0625 82.8124 53.7813 82.8124 71.875C82.8124 72.2894 82.977 72.6868 83.2701 72.9799C83.5631 73.2729 83.9605 73.4375 84.3749 73.4375H96.8749C97.2893 73.4375 97.6867 73.2729 97.9798 72.9799C98.2728 72.6868 98.4374 72.2894 98.4374 71.875C98.4549 65.5162 97.2117 59.217 94.7799 53.3416C92.3481 47.4661 88.7757 42.131 84.2694 37.6445ZM14.0956 70.3125H4.71283C5.05973 59.374 9.38392 48.9375 16.8749 40.959L23.5214 47.6055C17.7976 53.8245 14.4586 61.8682 14.0956 70.3125ZM48.4374 35.9727C39.9931 36.3351 31.9491 39.6725 25.7284 45.3945L19.0839 38.75C27.0628 31.2601 37.4994 26.9373 48.4374 26.5918V35.9727ZM51.5624 35.9727V26.5918C62.5005 26.9373 72.9371 31.2601 80.9159 38.75L74.2714 45.3945C68.0507 39.6725 60.0067 36.3351 51.5624 35.9727ZM85.9042 70.3125C85.5412 61.8682 82.2023 53.8245 76.4784 47.6055L83.1249 40.959C90.6159 48.9375 94.9401 59.374 95.287 70.3125H85.9042Z" fill="#E6CCBF"/>
<path d="M47.7761 64.3478L38.3886 55.7974C38.0822 55.5183 37.6775 55.3724 37.2636 55.3917C36.8496 55.411 36.4603 55.594 36.1813 55.9004C35.9022 56.2067 35.7563 56.6114 35.7756 57.0254C35.7949 57.4393 35.9779 57.8286 36.2843 58.1077L45.6718 66.6581C44.9611 68.0031 44.7654 69.5611 45.1213 71.0401C45.4772 72.5191 46.3603 73.8175 47.605 74.692C48.8497 75.5665 50.3707 75.957 51.8827 75.7903C53.3948 75.6236 54.7941 74.9112 55.8185 73.7865C56.8428 72.6619 57.4218 71.2023 57.447 69.6813C57.4721 68.1603 56.9417 66.6823 55.9551 65.5244C54.9685 64.3665 53.5935 63.6082 52.0878 63.3916C50.5821 63.175 49.0491 63.515 47.7761 64.3478ZM53.5086 71.6826C53.0924 72.1396 52.5501 72.4628 51.9502 72.6115C51.3502 72.7602 50.7197 72.7277 50.1383 72.5181C49.5569 72.3084 49.0507 71.9311 48.6837 71.4337C48.3167 70.9364 48.1055 70.3414 48.0767 69.724C48.0479 69.1066 48.2028 68.4945 48.5218 67.9652C48.8409 67.4358 49.3097 67.013 49.8691 66.7501C50.4285 66.4872 51.0533 66.3961 51.6644 66.4883C52.2756 66.5805 52.8457 66.8518 53.3026 67.268C53.9144 67.8266 54.2797 68.6051 54.3184 69.4327C54.357 70.2603 54.0658 71.0695 53.5086 71.6826Z" fill="#E6CCBF"/>
</svg>
