<svg width="110" height="110" viewBox="0 0 110 110" fill="none" xmlns="http://www.w3.org/2000/svg">
<path d="M92.6964 41.409C92.69 41.4004 92.6835 41.394 92.6771 41.3854C92.6706 41.3768 92.662 41.3725 92.6535 41.366C82.6634 31.3867 69.1204 25.7813 54.9999 25.7812C40.8795 25.7813 27.3365 31.3867 17.3464 41.366C17.3378 41.3725 17.3314 41.3789 17.3228 41.3854C17.3142 41.3918 17.3099 41.4004 17.3035 41.409C12.3465 46.3441 8.41699 52.2127 5.74197 58.6757C3.06694 65.1387 1.6995 72.0678 1.71871 79.0625C1.71871 79.5184 1.89979 79.9555 2.22212 80.2779C2.54444 80.6002 2.98161 80.7813 3.43746 80.7813H17.1875C17.6433 80.7813 18.0805 80.6002 18.4028 80.2779C18.7251 79.9555 18.9062 79.5184 18.9062 79.0625C18.9062 59.1594 35.0968 42.9688 54.9999 42.9688C74.9031 42.9688 91.0937 59.1594 91.0937 79.0625C91.0937 79.5184 91.2748 79.9555 91.5971 80.2779C91.9194 80.6002 92.3566 80.7813 92.8124 80.7813H106.562C107.018 80.7813 107.455 80.6002 107.778 80.2779C108.1 79.9555 108.281 79.5184 108.281 79.0625C108.3 72.0678 106.933 65.1387 104.258 58.6757C101.583 52.2127 97.6533 46.3441 92.6964 41.409ZM15.5052 77.3438H5.18413C5.56573 65.3114 10.3223 53.8312 18.5625 45.0549L25.8736 52.366C19.5773 59.207 15.9045 68.055 15.5052 77.3438ZM53.2812 39.5699C43.9924 39.9686 35.144 43.6398 28.3013 49.934L20.9923 42.625C29.7691 34.3861 41.2493 29.631 53.2812 29.251V39.5699ZM56.7187 39.5699V29.251C68.7506 29.631 80.2308 34.3861 89.0076 42.625L81.6986 49.934C74.8559 43.6398 66.0074 39.9686 56.7187 39.5699ZM94.4947 77.3438C94.0954 68.055 90.4226 59.207 84.1263 52.366L91.4374 45.0549C99.6776 53.8312 104.434 65.3114 104.816 77.3438H94.4947Z" fill="#E6CCBF"/>
<path d="M56.7188 72.4051V58.4375C56.7188 57.9817 56.5377 57.5445 56.2154 57.2222C55.893 56.8998 55.4559 56.7188 55 56.7188C54.5442 56.7188 54.107 56.8998 53.7847 57.2222C53.4623 57.5445 53.2813 57.9817 53.2813 58.4375V72.4051C51.6611 72.8235 50.2491 73.8183 49.3099 75.2033C48.3708 76.5882 47.969 78.2681 48.1798 79.9281C48.3907 81.5881 49.1997 83.1142 50.4552 84.2204C51.7108 85.3265 53.3267 85.9368 55 85.9368C56.6733 85.9368 58.2892 85.3265 59.5448 84.2204C60.8003 83.1142 61.6094 81.5881 61.8202 79.9281C62.0311 78.2681 61.6293 76.5882 60.6901 75.2033C59.751 73.8183 58.339 72.8235 56.7188 72.4051ZM55 82.5C54.3201 82.5 53.6555 82.2984 53.0902 81.9207C52.5249 81.543 52.0844 81.0061 51.8242 80.378C51.564 79.7499 51.4959 79.0587 51.6286 78.3919C51.7612 77.7251 52.0886 77.1126 52.5693 76.6318C53.0501 76.1511 53.6626 75.8237 54.3294 75.6911C54.9962 75.5584 55.6874 75.6265 56.3155 75.8867C56.9436 76.1468 57.4805 76.5874 57.8582 77.1527C58.2359 77.718 58.4375 78.3826 58.4375 79.0625C58.4364 79.9739 58.0739 80.8476 57.4295 81.492C56.7851 82.1364 55.9114 82.4989 55 82.5Z" fill="#E6CCBF"/>
</svg>
