<svg width="100" height="100" viewBox="0 0 100 100" fill="none" xmlns="http://www.w3.org/2000/svg">
<path d="M15.7306 37.6445C15.7364 37.6367 15.7423 37.6309 15.7481 37.6231C15.754 37.6152 15.7618 37.6113 15.7696 37.6055C24.8515 28.5334 37.1633 23.4375 50.0001 23.4375C62.8369 23.4375 75.1487 28.5334 84.2305 37.6055C84.2383 37.6113 84.2442 37.6172 84.252 37.6231C84.2598 37.6289 84.2637 37.6367 84.2696 37.6445C88.7759 42.131 92.3482 47.4661 94.7801 53.3416C97.2119 59.217 98.455 65.5162 98.4376 71.875C98.4376 72.2894 98.2729 72.6868 97.9799 72.9799C97.6869 73.2729 97.2895 73.4375 96.8751 73.4375H84.3751C83.9607 73.4375 83.5632 73.2729 83.2702 72.9799C82.9772 72.6868 82.8126 72.2894 82.8126 71.875C82.8126 53.7813 68.0938 39.0625 50.0001 39.0625C31.9063 39.0625 17.1876 53.7813 17.1876 71.875C17.1876 72.2894 17.023 72.6868 16.7299 72.9799C16.4369 73.2729 16.0395 73.4375 15.6251 73.4375H3.12508C2.71069 73.4375 2.31326 73.2729 2.02023 72.9799C1.7272 72.6868 1.56258 72.2894 1.56258 71.875C1.54513 65.5162 2.78825 59.217 5.22009 53.3416C7.65194 47.4661 11.2243 42.131 15.7306 37.6445ZM85.9044 70.3125H95.2872C94.9403 59.374 90.6161 48.9375 83.1251 40.959L76.4786 47.6055C82.2024 53.8245 85.5414 61.8682 85.9044 70.3125ZM51.5626 35.9727C60.0069 36.3351 68.0509 39.6725 74.2716 45.3945L80.9161 38.75C72.9372 31.2601 62.5006 26.9373 51.5626 26.5918V35.9727ZM48.4376 35.9727V26.5918C37.4995 26.9373 27.0629 31.2601 19.0841 38.75L25.7286 45.3945C31.9493 39.6725 39.9933 36.3351 48.4376 35.9727ZM14.0958 70.3125C14.4588 61.8682 17.7977 53.8245 23.5216 47.6055L16.8751 40.959C9.38407 48.9375 5.05988 59.374 4.71297 70.3125H14.0958Z" fill="#E6CCBF"/>
<path d="M52.2238 64.3478L61.6113 55.7974C61.9177 55.5183 62.3223 55.3724 62.7363 55.3917C63.1502 55.411 63.5396 55.594 63.8186 55.9004C64.0977 56.2067 64.2436 56.6114 64.2243 57.0254C64.2049 57.4393 64.022 57.8286 63.7156 58.1077L54.3281 66.6581C55.0387 68.0031 55.2345 69.5611 54.8786 71.0401C54.5227 72.5191 53.6396 73.8175 52.3949 74.692C51.1501 75.5665 49.6292 75.957 48.1172 75.7903C46.6051 75.6236 45.2058 74.9112 44.1814 73.7865C43.1571 72.6619 42.5781 71.2023 42.5529 69.6813C42.5277 68.1603 43.0582 66.6823 44.0448 65.5244C45.0314 64.3665 46.4064 63.6082 47.9121 63.3916C49.4178 63.175 50.9508 63.515 52.2238 64.3478ZM46.4913 71.6826C46.9075 72.1396 47.4498 72.4628 48.0497 72.6115C48.6496 72.7602 49.2802 72.7277 49.8616 72.5181C50.443 72.3084 50.9492 71.9311 51.3162 71.4337C51.6831 70.9364 51.8944 70.3414 51.9232 69.724C51.952 69.1066 51.7971 68.4945 51.478 67.9652C51.159 67.4358 50.6901 67.013 50.1308 66.7501C49.5714 66.4872 48.9466 66.3961 48.3355 66.4883C47.7243 66.5805 47.1542 66.8518 46.6973 67.268C46.0854 67.8266 45.7201 68.6051 45.6815 69.4327C45.6429 70.2603 45.9341 71.0695 46.4913 71.6826Z" fill="#E6CCBF"/>
</svg>
