<svg width="21" height="21" fill="none" xmlns="http://www.w3.org/2000/svg"><g clip-path="url(#clip0_39_27)" fill="#E6CCBF"><path d="M20.98 6.174c-.05-1.116-.23-1.883-.489-2.548a5.124 5.124 0 00-1.214-1.862 5.168 5.168 0 00-1.858-1.21C16.75.295 15.987.114 14.87.066 13.747.012 13.391 0 10.54 0 7.688 0 7.33.012 6.21.062 5.095.11 4.328.292 3.663.55a5.124 5.124 0 00-1.862 1.214A5.17 5.17 0 00.59 3.622C.332 4.292.15 5.054.103 6.17.049 7.294.037 7.65.037 10.502c0 2.851.012 3.208.061 4.328.05 1.116.23 1.883.489 2.548.266.705.68 1.337 1.214 1.862a5.169 5.169 0 001.858 1.21c.669.259 1.432.44 2.548.488 1.12.05 1.477.062 4.328.062s3.208-.012 4.328-.062c1.116-.049 1.883-.23 2.547-.488a5.371 5.371 0 003.073-3.072c.258-.669.44-1.432.488-2.548.05-1.12.062-1.477.062-4.328s-.004-3.208-.054-4.328zm-1.892 8.574c-.045 1.026-.217 1.58-.36 1.949a3.483 3.483 0 01-1.995 1.993c-.369.144-.927.316-1.948.361-1.108.05-1.44.062-4.242.062s-3.138-.012-4.242-.062c-1.025-.045-1.58-.217-1.948-.36a3.23 3.23 0 01-1.207-.784 3.264 3.264 0 01-.783-1.206c-.144-.37-.316-.927-.361-1.949-.05-1.107-.062-1.44-.062-4.242s.013-3.138.062-4.242c.045-1.025.217-1.579.36-1.948.17-.456.436-.87.789-1.206a3.26 3.26 0 011.206-.784c.369-.143.927-.316 1.948-.36 1.108-.05 1.44-.062 4.242-.062 2.806 0 3.138.012 4.242.061 1.026.045 1.58.218 1.949.361.455.168.87.435 1.206.784.348.34.615.75.783 1.206.144.369.316.927.361 1.948.05 1.108.062 1.44.062 4.242s-.012 3.13-.062 4.238z"/><path d="M10.539 5.107a5.396 5.396 0 00-5.395 5.395 5.396 5.396 0 105.395-5.395zm0 8.894a3.5 3.5 0 11.001-7 3.5 3.5 0 01-.001 7zm6.867-9.107a1.26 1.26 0 11-2.519 0 1.26 1.26 0 012.52 0z"/></g><defs><clipPath id="clip0_39_27"><path fill="#fff" d="M0 0h21v21H0z"/></clipPath></defs></svg>