<svg width="22" height="22" viewBox="0 0 22 22" fill="none" xmlns="http://www.w3.org/2000/svg">
<path d="M21.0833 11.8978H0.916667C0.410665 11.8978 0 11.4871 0 10.9811C0 10.4751 0.410665 10.0645 0.916667 10.0645H21.0833C21.5893 10.0645 22 10.4751 22 10.9811C22 11.4871 21.5893 11.8978 21.0833 11.8978Z" fill="black"/>
<path d="M21.0833 4.86947H0.916667C0.410665 4.86947 0 4.4588 0 3.9528C0 3.4468 0.410665 3.03613 0.916667 3.03613H21.0833C21.5893 3.03613 22 3.4468 22 3.9528C22 4.4588 21.5893 4.86947 21.0833 4.86947Z" fill="black"/>
<path d="M21.0833 18.9251H0.916667C0.410665 18.9251 0 18.5145 0 18.0085C0 17.5025 0.410665 17.0918 0.916667 17.0918H21.0833C21.5893 17.0918 22 17.5025 22 18.0085C22 18.5145 21.5893 18.9251 21.0833 18.9251Z" fill="black"/>
</svg>
