<svg width="26" height="26" viewBox="0 0 26 26" fill="none" xmlns="http://www.w3.org/2000/svg">
<g clip-path="url(#clip0_39_31)">
<path d="M19.2386 14.9401C19.188 14.9157 17.2925 13.9824 16.9557 13.8611C16.8182 13.8118 16.6709 13.7636 16.5142 13.7636C16.2583 13.7636 16.0433 13.8911 15.8758 14.1417C15.6864 14.4231 15.1133 15.0931 14.9361 15.2932C14.913 15.3197 14.8814 15.3512 14.8625 15.3512C14.8456 15.3512 14.5522 15.2304 14.4634 15.1919C12.4301 14.3086 10.8867 12.1846 10.6751 11.8265C10.6449 11.775 10.6436 11.7516 10.6434 11.7516C10.6508 11.7243 10.7192 11.6558 10.7545 11.6204C10.8577 11.5183 10.9695 11.3836 11.0778 11.2534C11.129 11.1917 11.1803 11.1299 11.2307 11.0716C11.3877 10.889 11.4576 10.7471 11.5387 10.5829L11.5811 10.4975C11.779 10.1044 11.61 9.77264 11.5554 9.66552C11.5106 9.57587 10.7102 7.64427 10.6251 7.44133C10.4205 6.95164 10.1501 6.72363 9.77439 6.72363C9.73953 6.72363 9.77439 6.72363 9.62818 6.72979C9.45015 6.73731 8.48064 6.86494 8.05197 7.13516C7.5974 7.42175 6.82837 8.3353 6.82837 9.94189C6.82837 11.3878 7.74597 12.7531 8.13993 13.2723C8.14973 13.2854 8.16771 13.312 8.19379 13.3502C9.70255 15.5536 11.5834 17.1865 13.4901 17.9482C15.3257 18.6814 16.195 18.7662 16.6891 18.7662C16.6892 18.7662 16.6892 18.7662 16.6892 18.7662C16.8969 18.7662 17.0631 18.7499 17.2097 18.7355L17.3027 18.7266C17.9369 18.6704 19.3304 17.9483 19.6474 17.0674C19.8971 16.3736 19.9629 15.6155 19.7968 15.3404C19.683 15.1534 19.4869 15.0592 19.2386 14.9401Z" fill="#E6CCBF"/>
<path d="M13.231 0C6.18941 0 0.460627 5.68573 0.460627 12.6744C0.460627 14.9348 1.06555 17.1474 2.21149 19.0839L0.0181207 25.5539C-0.0227365 25.6746 0.00765311 25.808 0.0968804 25.8988C0.16129 25.9645 0.24866 26 0.337887 26C0.372075 26 0.406517 25.9949 0.440114 25.9841L7.18661 23.8403C9.03278 24.8267 11.1194 25.3474 13.2311 25.3474C20.272 25.3475 26.0002 19.6623 26.0002 12.6744C26.0002 5.68573 20.272 0 13.231 0ZM13.231 22.7073C11.244 22.7073 9.31937 22.1335 7.665 21.0479C7.60937 21.0114 7.54479 20.9926 7.47979 20.9926C7.44543 20.9926 7.41099 20.9979 7.37748 21.0085L3.9979 22.0828L5.08888 18.8641C5.12417 18.7599 5.10653 18.645 5.04153 18.5562C3.78171 16.8348 3.11575 14.801 3.11575 12.6744C3.11575 7.14156 7.65343 2.64018 13.2309 2.64018C18.8078 2.64018 23.3449 7.14156 23.3449 12.6744C23.345 18.2066 18.8079 22.7073 13.231 22.7073Z" fill="#E6CCBF"/>
</g>
<defs>
<clipPath id="clip0_39_31">
<rect width="26" height="26" fill="white"/>
</clipPath>
</defs>
</svg>
