<svg width="104" height="104" fill="none" xmlns="http://www.w3.org/2000/svg"><g clip-path="url(#clip0_253_4)" fill="#E6CCBF"><path d="M72.194 104.009a5.224 5.224 0 005.025-3.847l4.792-17.89 18.147-4.851a5.208 5.208 0 003.666-6.365l-9.41-35.07.745-2.772a5.199 5.199 0 00-3.135-6.167L87.788 11.23a5.235 5.235 0 00-6.368-3.68l-30.95 8.303-25.95-6.958a5.097 5.097 0 00-3.22.174l-6.483-6.472a8.663 8.663 0 10-12.254 12.25L14.38 26.666.223 79.514a5.21 5.21 0 003.666 6.374l66.956 17.94c.44.119.893.181 1.349.18zm28.277-32.058a1.734 1.734 0 01-1.214 2.118l-16.209 4.332 9.567-35.715 7.856 29.265zM82.307 10.902a1.732 1.732 0 012.133 1.232l3.696 13.808-30.97-8.297 25.14-6.743zm-29.805 41.64l-8.748-2.916 5.832-5.838 2.916 8.748v.006zm-7.053-9.51L30.747 28.329a1.733 1.733 0 10-2.45 2.452l14.705 14.7-2.45 2.453-24.507-24.507 2.45-2.45 4.9 4.902a1.733 1.733 0 002.453-2.452l-4.901-4.9 2.45-2.453L47.9 40.581l-2.45 2.452zM11.142 18.526l7.352-7.352 2.45 2.45-7.35 7.353-2.452-2.45zm-7.65-9.802a5.2 5.2 0 018.876-3.676l3.676 3.676-7.353 7.352-3.677-3.677a5.164 5.164 0 01-1.521-3.675zm.08 71.702l13.641-50.928 22.111 22.111c.181.177.398.311.638.394.013 0 .024.019.04.023l11.414 3.813c.356.117.73.175 1.105.173a3.431 3.431 0 001.84-.542l19.929 5.35a1.732 1.732 0 10.898-3.346L55.953 52.31a3.585 3.585 0 00-.16-.867l-3.812-11.415c0-.016-.02-.026-.026-.042a1.72 1.72 0 00-.392-.634L24.78 12.56l65.798 17.624a1.732 1.732 0 011.227 2.125L73.873 99.256a1.731 1.731 0 01-2.126 1.227L4.8 82.55a1.733 1.733 0 01-1.226-2.124z"/><path d="M80.125 40.788a1.734 1.734 0 00.448-3.407l-24.647-6.604a1.731 1.731 0 00-2.164 2.124 1.733 1.733 0 001.266 1.222l24.648 6.605c.147.04.298.06.45.06zM77.432 50.83a1.733 1.733 0 00.448-3.408L61.123 42.94a1.732 1.732 0 10-.894 3.347l16.757 4.484c.145.038.295.058.446.058zm-53.47 3.673l-5.025-1.346a1.731 1.731 0 00-2.156 2.122 1.733 1.733 0 001.257 1.223l5.025 1.349a1.732 1.732 0 10.9-3.348zm49.763 15.126a1.733 1.733 0 00-1.224-2.122L34.002 57.194a1.733 1.733 0 00-.895 3.339l38.496 10.314a1.732 1.732 0 002.123-1.218zM21.27 64.545l-5.026-1.347a1.733 1.733 0 00-.895 3.348l5.025 1.344a1.732 1.732 0 10.897-3.346h-.002zm48.54 13.006L31.312 67.235a1.734 1.734 0 00-2.164 2.124 1.735 1.735 0 001.266 1.223l38.497 10.315a1.734 1.734 0 00.897-3.346z"/></g><defs><clipPath id="clip0_253_4"><path fill="#fff" d="M0 0h104v104H0z"/></clipPath></defs></svg>