<svg width="105" height="105" fill="none" xmlns="http://www.w3.org/2000/svg"><g clip-path="url(#clip0_43_100)" fill="#E6CCBF"><path d="M63.679 13.063l-39.64 6.99a1.75 1.75 0 11-.607-3.448l39.638-6.98a1.75 1.75 0 01.609 3.447v-.009zm-5.981 6.387a1.75 1.75 0 01.607 3.445l-25.851 4.559a1.75 1.75 0 11-.609-3.446l25.853-4.559zm10.944 31.825l-36.193 6.382a3.5 3.5 0 01-4.051-2.838l-3.04-17.236a3.5 3.5 0 012.838-4.053l36.19-6.375a3.5 3.5 0 014.053 2.838l3.04 17.232a3.5 3.5 0 01-2.837 4.05zm-3.647-20.673l-36.194 6.38 3.037 17.235 36.195-6.38-3.038-17.235z"/><path d="M94.918 93.543c-1.4 7.543-8.61 12.555-16.168 11.238l-55.157-9.73a5.22 5.22 0 01-3.792-2.882A13.914 13.914 0 019.975 81.28c0-.035-.031-.064-.037-.1L.212 26.03a14 14 0 0111.77-16.291L66.721.087a5.145 5.145 0 013.898.865A5.157 5.157 0 0172.8 4.345L75.367 18.9l17.544 3.089a14.209 14.209 0 0111.965 14.43 13.665 13.665 0 01-.201 1.86L94.964 93.42c-.009.046-.035.08-.046.123zm-15.575 7.791c2.976.517 6.03-.268 8.388-2.156a10.41 10.41 0 003.929-7.748 10.605 10.605 0 00-7.338-10.347 5.196 5.196 0 01-3.02 1.729l-3.095.546 4.162.738a7 7 0 015.323 9.436 7.058 7.058 0 01-6.65 4.433c-.437 0-.874-.038-1.305-.114l-41.846-7.376-10.066 1.77 51.518 9.089zM47.96 88.692l32.375 5.712a3.684 3.684 0 004.082-2.118 3.5 3.5 0 00-2.658-4.742L68.154 85.13l-20.195 3.562zm-30.8-1.75a10.5 10.5 0 008.391 2.147l55.15-9.723a1.75 1.75 0 10-.606-3.448l-54.95 9.688a7.12 7.12 0 01-7.941-4.305 7 7 0 015.306-9.45l55.153-9.726a1.75 1.75 0 00-.608-3.446l-54.728 9.65a10.748 10.748 0 00-9.1 10.85 10.411 10.411 0 003.94 7.76l-.007.003zm5.95-11.636a3.5 3.5 0 00-2.634 4.74 3.675 3.675 0 004.065 2.113l53.223-9.384-1.225-6.893-53.43 9.424zM69.358 4.954a1.715 1.715 0 00-.746-1.134 1.656 1.656 0 00-1.282-.285l-51.708 9.117 1.587 8.988a1.75 1.75 0 11-3.445.61l-1.575-8.954a10.69 10.69 0 00-8.671 10.745c.021.463.072.924.15 1.381l8.129 46.137a14.633 14.633 0 019.508-6.58L15.62 32.713a1.75 1.75 0 113.445-.606l5.68 32.246 51.701-9.116a5.273 5.273 0 011.778.01L69.358 4.954zm32.025 31.325a10.712 10.712 0 00-9.074-10.85l-16.29-2.875L82.525 59.5a5.25 5.25 0 01-2.59 5.46l1.327 7.525a5.184 5.184 0 014.303 4.247c.062.355.087.716.075 1.076a14.525 14.525 0 017.459 5.996l8.127-46.114c.082-.466.132-.937.152-1.41h.004z"/></g><defs><clipPath id="clip0_43_100"><path fill="#fff" transform="matrix(-1 0 0 1 105 0)" d="M0 0h105v105H0z"/></clipPath></defs></svg>