<svg width="100" height="100" fill="none" xmlns="http://www.w3.org/2000/svg"><path d="M50.003 0a50.002 50.002 0 00-47.53 65.533 50.005 50.005 0 0018.226 24.989l.046.032.009.006a50.024 50.024 0 0058.492 0l.049-.034A50.004 50.004 0 0050.003 0zm-26.33 88.026v-3.235a24.348 24.348 0 0124.351-24.363h3.957A24.346 24.346 0 0176.334 84.79v3.235a46.236 46.236 0 01-52.66 0zM50.125 56.69h-.246a16.596 16.596 0 01-16.528-16.578A16.654 16.654 0 0166.6 38.827c.035.427.054.855.054 1.283a16.598 16.598 0 01-16.528 16.578v.002zm29.95 28.434v-.333a28.087 28.087 0 00-20.127-26.95 20.285 20.285 0 0010.445-17.733 20.396 20.396 0 00-40.72-1.6 18.84 18.84 0 00-.068 1.604 20.278 20.278 0 0010.45 17.728A28.085 28.085 0 0019.93 84.791v.333a46.257 46.257 0 0156.513-73.1 46.256 46.256 0 013.635 73.1z" fill="#E6CCBF"/></svg>