<svg width="100" height="100" fill="none" xmlns="http://www.w3.org/2000/svg"><path d="M84.27 37.645l-.018-.022c-.006-.008-.014-.012-.022-.017a48.435 48.435 0 00-68.46 0l-.022.017c-.008.006-.012.014-.018.022a48.117 48.117 0 00-14.168 34.23 1.563 1.563 0 001.563 1.563h12.5a1.563 1.563 0 001.562-1.563c0-18.094 14.72-32.813 32.813-32.813 18.094 0 32.812 14.72 32.812 32.813a1.562 1.562 0 001.563 1.563h12.5a1.563 1.563 0 001.562-1.563 48.116 48.116 0 00-14.168-34.23zM14.095 70.311H4.713A44.967 44.967 0 0116.875 40.96l6.646 6.646a35.801 35.801 0 00-9.425 22.708zm34.341-34.34a35.812 35.812 0 00-22.709 9.422l-6.644-6.644a44.963 44.963 0 0129.353-12.158v9.38zm3.125 0v-9.38A44.962 44.962 0 0180.916 38.75l-6.645 6.645a35.812 35.812 0 00-22.709-9.422zm34.342 34.34a35.8 35.8 0 00-9.426-22.706l6.647-6.647a44.967 44.967 0 0112.162 29.353h-9.383z" fill="#E6CCBF"/><path d="M47.776 64.348l-9.387-8.55a1.563 1.563 0 10-2.105 2.31l9.388 8.55a6.25 6.25 0 102.104-2.31zm5.733 7.335a3.124 3.124 0 11-4.62-4.208 3.124 3.124 0 014.62 4.208z" fill="#E6CCBF"/></svg>