<svg width="110" height="110" fill="none" xmlns="http://www.w3.org/2000/svg"><path d="M92.696 41.409l-.019-.024c-.006-.008-.015-.012-.024-.019a53.28 53.28 0 00-75.307 0l-.023.02c-.009.006-.013.014-.02.023A52.927 52.927 0 001.72 79.063a1.719 1.719 0 001.718 1.718h13.75a1.719 1.719 0 001.72-1.719C18.906 59.16 35.096 42.97 55 42.97c19.903 0 36.094 16.19 36.094 36.093a1.719 1.719 0 001.718 1.72h13.75a1.721 1.721 0 001.719-1.72A52.932 52.932 0 0092.696 41.41zm-77.19 35.935H5.183a49.463 49.463 0 0113.378-32.29l7.312 7.312a39.381 39.381 0 00-10.369 24.978zM53.28 39.57A39.394 39.394 0 0028.3 49.934l-7.309-7.309a49.459 49.459 0 0132.29-13.374V39.57zm3.438 0V29.25a49.459 49.459 0 0132.289 13.374l-7.31 7.309a39.394 39.394 0 00-24.98-10.364zm37.776 37.774a39.381 39.381 0 00-10.369-24.978l7.311-7.311a49.465 49.465 0 0113.379 32.289h-10.32z" fill="#E6CCBF"/><path d="M56.719 72.405V58.437a1.719 1.719 0 00-3.438 0v13.968a6.875 6.875 0 103.438 0zM55 82.5a3.438 3.438 0 110-6.875 3.438 3.438 0 010 6.875z" fill="#E6CCBF"/></svg>