<svg width="100" height="100" fill="none" xmlns="http://www.w3.org/2000/svg"><path d="M15.73 37.645l.018-.022c.006-.008.014-.012.022-.017a48.435 48.435 0 0168.46 0l.022.017c.008.006.012.014.018.022a48.118 48.118 0 0114.168 34.23 1.563 1.563 0 01-1.563 1.563h-12.5a1.563 1.563 0 01-1.562-1.563c0-18.094-14.72-32.813-32.813-32.813-18.094 0-32.812 14.72-32.812 32.813a1.562 1.562 0 01-1.563 1.563h-12.5a1.563 1.563 0 01-1.562-1.563 48.116 48.116 0 0114.168-34.23zm70.174 32.667h9.383A44.967 44.967 0 0083.125 40.96l-6.646 6.646a35.801 35.801 0 019.425 22.708zm-34.341-34.34a35.812 35.812 0 0122.709 9.422l6.644-6.644a44.963 44.963 0 00-29.353-12.158v9.38zm-3.125 0v-9.38A44.962 44.962 0 0019.084 38.75l6.645 6.645a35.812 35.812 0 0122.709-9.422zm-34.342 34.34a35.8 35.8 0 019.426-22.706l-6.647-6.647A44.966 44.966 0 004.713 70.312h9.383z" fill="#E6CCBF"/><path d="M52.224 64.348l9.387-8.55a1.562 1.562 0 112.105 2.31l-9.388 8.55a6.25 6.25 0 11-2.104-2.31zm-5.733 7.335a3.124 3.124 0 104.62-4.208 3.124 3.124 0 00-4.62 4.208z" fill="#E6CCBF"/></svg>